Coordinates
version=1
nRows=14
nColumns=36
inDegrees=yes

Units are S.I. units (second, meters, Newtons, ...)
If the header above contains a line with 'inDegrees', this indicates whether rotational values are in degrees (yes) or radians (no).

endheader
time	pelvis_tilt	pelvis_list	pelvis_rotation	pelvis_tx	pelvis_ty	pelvis_tz	hip_flexion_r	hip_adduction_r	hip_rotation_r	knee_angle_r	knee_angle_r_beta	ankle_angle_r	subtalar_angle_r	mtp_angle_r	hip_flexion_l	hip_adduction_l	hip_rotation_l	knee_angle_l	knee_angle_l_beta	ankle_angle_l	subtalar_angle_l	mtp_angle_l	lumbar_extension	lumbar_bending	lumbar_rotation	arm_flex_r	arm_add_r	arm_rot_r	elbow_flex_r	pro_sup_r	arm_flex_l	arm_add_l	arm_rot_l	elbow_flex_l	pro_sup_l
      1.75000000	      1.07322461	     -1.62280129	      2.57632590	      0.41987605	      1.25210007	     -0.19424027	      4.32253523	      3.75013041	      9.71462847	     15.90163953	      0.27753597	     10.18113488	     -4.16194094	     -7.49999987	      4.55331051	     -3.34989285	     -8.57339378	     14.97061165	      0.26128646	     10.76091599	     -7.70171681	     -7.49999987	    -18.92385532	      3.31599481	     -2.74582745	     11.62062265	    -13.64653299	     18.69647386	     19.62701614	     91.89547676	     -1.84546528	    -13.57311002	     10.15995929	     22.65880461	     88.30649766
      1.76666670	      0.16636584	     -1.68132350	      2.62826654	      0.42924408	      1.24586977	     -0.19761905	      5.85494634	      3.70779955	      9.32667287	     16.80293073	      0.29326647	     10.70038140	     -3.79205176	     -7.49999987	      6.10879176	     -3.42318339	     -8.38143195	     15.83320413	      0.27634154	     11.16012747	     -7.96543435	     -7.49999987	    -19.14634631	      3.28532485	     -2.41471928	     10.89546069	    -14.20822675	     18.63602823	     20.05129046	     91.61110496	     -3.03469816	    -14.02633630	      9.71406540	     22.91044864	     87.91626961
      1.78333330	     -0.46559661	     -1.70922183	      2.65958265	      0.42940944	      1.24202635	     -0.19815178	      7.17431196	      3.64671498	      9.02320374	     17.97502736	      0.31372341	     11.42775347	     -3.41512973	     -7.49999987	      7.29780426	     -3.47088478	     -8.19725091	     16.69427160	      0.29137001	     11.69995614	     -8.17477155	     -7.49999987	    -19.70063983	      3.16165979	     -1.92530819	      9.97310920	    -14.92399000	     18.58306158	     21.16223251	     90.14226641	     -4.17417315	    -14.46787598	      8.93669162	     23.35075669	     86.48276851
      1.80000000	     -1.39270616	     -1.75940237	      2.68753076	      0.43013107	      1.24221290	     -0.19799468	      8.73411674	      3.57603927	      8.67988845	     19.10316728	      0.33341317	     12.12198555	     -3.13612281	     -7.49999987	      8.76419746	     -3.53732825	     -8.27626990	     17.71826659	      0.30924209	     12.34121458	     -8.07207606	     -7.49999987	    -19.66451719	      3.08716358	     -1.84837281	      9.58522145	    -15.33282663	     19.31811483	     20.25678114	     88.74062105	     -5.17163422	    -14.82433633	      8.74124637	     22.86120782	     84.43195305
      1.81666670	     -2.06023623	     -1.79339976	      2.77135701	      0.43011699	      1.24165488	     -0.19881744	     10.07978601	      3.46033818	      8.12161196	     20.39986120	      0.35604474	     12.97001708	     -2.55690420	     -7.49999987	     10.01797189	     -3.56424216	     -8.15931032	     18.79966178	      0.32811600	     12.87261045	     -8.20528393	     -7.49999987	    -20.16065150	      2.97536317	     -1.90568769	      8.95721354	    -15.85890722	     18.13326840	     20.39141760	     95.95600349	     -6.66156600	    -14.99119447	      5.41787741	     23.88475471	     89.37330646
      1.83333330	     -2.51479470	     -1.87069584	      2.89899113	      0.43707384	      1.23296750	     -0.19638706	     11.10722846	      3.47688284	      7.88850338	     21.81084289	      0.38067102	     13.75888010	     -2.53871852	     -7.49999987	     11.08018382	     -3.69249636	     -8.01733400	     20.05829799	      0.35008334	     13.58148293	     -8.31743634	     -7.49999987	    -20.74012426	      2.81443801	     -1.64621402	      7.73110218	    -16.50405635	     18.16414732	     20.82201817	     95.15116428	     -7.60544166	    -15.55104961	      5.31155026	     24.49670863	     88.70210380
      1.85000000	     -3.55374557	     -1.98394402	      3.00606094	      0.43735053	      1.22849906	     -0.19724936	     13.13558757	      3.43821688	      7.30999992	     24.06683872	      0.42004558	     15.03251106	     -1.75149572	     -7.49999987	     13.09170164	     -3.93113424	     -8.03180896	     21.97752046	      0.38358009	     14.63539564	     -8.11125945	     -7.49999987	    -20.54454521	      2.63502844	     -0.86119873	      6.26927499	    -17.24190902	     18.71131483	     20.90647868	     93.23025323	     -8.17470197	    -15.99437101	      5.61033642	     24.48010596	     86.85305661
      1.86666670	     -4.38383658	     -2.09007749	      3.22022825	      0.43755507	      1.22516824	     -0.19756472	     15.11548322	      3.47158293	      7.04689959	     26.56453679	      0.46363863	     16.03256819	     -1.89477271	     -7.49999987	     15.10187469	     -4.11014674	     -7.60969351	     24.12580429	      0.42107472	     15.68934285	     -8.50908366	     -7.49999987	    -20.90436150	      2.50511584	     -0.63464759	      4.97003426	    -17.76227683	     18.68039150	     21.66467561	     91.57015526	     -9.30165431	    -16.45285897	      5.50660343	     25.51941530	     85.09090181
      1.88333330	     -5.36544414	     -2.10288437	      3.38785855	      0.43747797	      1.21423077	     -0.19827975	     17.60102017	      3.17147578	      6.17464089	     29.55439028	      0.51582142	     17.72923587	     -0.66298368	     -7.49999987	     17.56223332	     -4.32914144	     -7.59059344	     26.89049943	      0.46932775	     17.44373324	     -7.91452999	     -7.49999987	    -21.05822066	      2.31938621	     -0.09242679	      3.99621218	    -18.06454304	     18.27271634	     21.30676540	     90.81138627	     -9.01240261	    -16.48934773	      5.13293227	     24.07892836	     84.40175991
      1.90000000	     -6.05487364	     -1.98547599	      3.53971979	      0.44564851	      1.21414101	     -0.20177060	     19.48213400	      2.77948784	      5.68532418	     32.06202150	      0.55958784	     19.37137723	     -0.02359486	     -7.49999987	     19.50723925	     -4.36848140	     -7.67991625	     29.55546851	      0.51584024	     18.74567855	     -7.77814714	     -7.49999987	    -21.51695956	      1.99848021	      0.22063326	      3.44308033	    -18.27323842	     18.21539945	     20.84426454	     91.11962006	     -9.08189604	    -16.41812304	      4.95747529	     23.29308493	     84.67786239
      1.91666670	     -6.80919994	     -2.01018053	      3.94682177	      0.44596453	      1.20978813	     -0.20265742	     21.25019086	      2.49808986	      5.12348726	     34.18787105	      0.59669091	     20.95469135	      0.58644043	     -7.49999987	     21.55850455	     -4.43353620	     -7.46757314	     32.03193188	      0.55906268	     19.78305598	     -7.75770435	     -7.49999987	    -21.94455702	      1.89047593	      0.73717124	      2.83673677	    -18.49226187	     17.67865018	     20.35184702	     91.60796434	     -7.74491073	    -16.37382914	      5.71912484	     21.86468608	     85.98968140
      1.93333330	     -7.24175551	     -1.89615724	      4.10536626	      0.45394172	      1.20395306	     -0.20648785	     22.59815109	      2.13161598	      4.69992790	     36.30192928	      0.63358819	     22.76190733	      1.37908835	     -7.49999987	     22.78188399	     -4.38598318	     -7.60270363	     34.12946305	      0.59567150	     20.92191272	     -7.31817047	     -7.49999987	    -22.50413512	      1.58857661	      1.00807575	      2.78783827	    -18.56835310	     17.54680570	     19.86602477	     91.50929870	     -7.22621530	    -16.04268459	      5.48813101	     21.31554981	     85.97289386
      1.95000000	     -7.10126508	     -1.76969472	      4.28042389	      0.46935268	      1.20087816	     -0.20791613	     22.65151347	      1.85296810	      4.37967713	     37.63985109	      0.65693933	     24.41781996	      2.07836850	     -7.49999987	     22.72502076	     -4.25583176	     -7.78064123	     35.44586479	      0.61864705	     21.69274383	     -6.85435919	     -7.49999987	    -22.96093483	      1.35472688	      1.25316724	      3.22843951	    -18.30952763	     17.20263738	     18.48657508	     91.23469864	     -5.96549387	    -15.62618809	      5.44395114	     19.84434623	     86.17292635
      1.96666670	     -7.16286259	     -1.69172288	      4.43095406	      0.46835183	      1.19554675	     -0.20811064	     23.11073229	      1.70921798	      4.29808416	     39.15652513	      0.68341029	     25.81866266	      2.44540255	     -7.49999987	     23.05345142	     -4.14052540	     -7.75611607	     36.98923828	      0.64558400	     22.88225864	     -5.93754400	     -7.49999987	    -23.42392390	      1.09714214	      1.45568980	      4.63672885	    -18.28367975	     17.00210820	     17.93738400	     88.23568139	     -4.53590173	    -15.33258212	      5.54446044	     18.85930389	     83.93758741
